<mxfile host="app.diagrams.net" modified="2023-10-28T03:40:41.495Z" agent="Mozilla/5.0 (Windows NT 10.0; Win64; x64) AppleWebKit/537.36 (KHTML, like Gecko) Chrome/109.0.0.0 Safari/537.36" etag="Ne060yh3ydtMHv9qaCNr" version="22.0.8" type="device">
  <diagram id="C5RBs43oDa-KdzZeNtuy" name="Page-1">
    <mxGraphModel dx="880" dy="484" grid="1" gridSize="10" guides="1" tooltips="1" connect="1" arrows="1" fold="1" page="1" pageScale="1" pageWidth="827" pageHeight="1169" math="0" shadow="0">
      <root>
        <mxCell id="WIyWlLk6GJQsqaUBKTNV-0" />
        <mxCell id="WIyWlLk6GJQsqaUBKTNV-1" parent="WIyWlLk6GJQsqaUBKTNV-0" />
        <mxCell id="k977jamux4XJl_YSITcb-2" style="edgeStyle=orthogonalEdgeStyle;rounded=0;orthogonalLoop=1;jettySize=auto;html=1;exitX=0.5;exitY=1;exitDx=0;exitDy=0;" parent="WIyWlLk6GJQsqaUBKTNV-1" source="k977jamux4XJl_YSITcb-0" edge="1">
          <mxGeometry relative="1" as="geometry">
            <mxPoint x="390" y="130" as="targetPoint" />
          </mxGeometry>
        </mxCell>
        <mxCell id="k977jamux4XJl_YSITcb-0" value="START" style="ellipse;whiteSpace=wrap;html=1;" parent="WIyWlLk6GJQsqaUBKTNV-1" vertex="1">
          <mxGeometry x="340" y="50" width="100" height="40" as="geometry" />
        </mxCell>
        <mxCell id="k977jamux4XJl_YSITcb-4" style="edgeStyle=orthogonalEdgeStyle;rounded=0;orthogonalLoop=1;jettySize=auto;html=1;exitX=0.5;exitY=1;exitDx=0;exitDy=0;" parent="WIyWlLk6GJQsqaUBKTNV-1" source="k977jamux4XJl_YSITcb-3" edge="1">
          <mxGeometry relative="1" as="geometry">
            <mxPoint x="391" y="230" as="targetPoint" />
          </mxGeometry>
        </mxCell>
        <mxCell id="k977jamux4XJl_YSITcb-3" value="Read the length&lt;br&gt;of array in n,&lt;br&gt;and the array&lt;br&gt;in arr" style="shape=parallelogram;perimeter=parallelogramPerimeter;whiteSpace=wrap;html=1;fixedSize=1;" parent="WIyWlLk6GJQsqaUBKTNV-1" vertex="1">
          <mxGeometry x="326" y="130" width="130" height="60" as="geometry" />
        </mxCell>
        <mxCell id="k977jamux4XJl_YSITcb-6" style="edgeStyle=orthogonalEdgeStyle;rounded=0;orthogonalLoop=1;jettySize=auto;html=1;exitX=0.5;exitY=1;exitDx=0;exitDy=0;" parent="WIyWlLk6GJQsqaUBKTNV-1" edge="1">
          <mxGeometry relative="1" as="geometry">
            <mxPoint x="392" y="300" as="targetPoint" />
            <mxPoint x="392" y="261" as="sourcePoint" />
          </mxGeometry>
        </mxCell>
        <mxCell id="k977jamux4XJl_YSITcb-5" value="Set i = 0" style="rounded=0;whiteSpace=wrap;html=1;" parent="WIyWlLk6GJQsqaUBKTNV-1" vertex="1">
          <mxGeometry x="348" y="230" width="88" height="30" as="geometry" />
        </mxCell>
        <mxCell id="k977jamux4XJl_YSITcb-7" value="Is&lt;br&gt;i &amp;lt; n-1" style="html=1;whiteSpace=wrap;aspect=fixed;shape=isoRectangle;" parent="WIyWlLk6GJQsqaUBKTNV-1" vertex="1">
          <mxGeometry x="349" y="299" width="85" height="51" as="geometry" />
        </mxCell>
        <mxCell id="k977jamux4XJl_YSITcb-8" value="Set&lt;br&gt;min_idx = i" style="rounded=0;whiteSpace=wrap;html=1;" parent="WIyWlLk6GJQsqaUBKTNV-1" vertex="1">
          <mxGeometry x="349" y="389" width="91" height="41" as="geometry" />
        </mxCell>
        <mxCell id="k977jamux4XJl_YSITcb-11" style="edgeStyle=orthogonalEdgeStyle;rounded=0;orthogonalLoop=1;jettySize=auto;html=1;exitX=0.5;exitY=1;exitDx=0;exitDy=0;" parent="WIyWlLk6GJQsqaUBKTNV-1" edge="1">
          <mxGeometry relative="1" as="geometry">
            <mxPoint x="392" y="388" as="targetPoint" />
            <mxPoint x="392" y="349" as="sourcePoint" />
          </mxGeometry>
        </mxCell>
        <mxCell id="k977jamux4XJl_YSITcb-12" style="edgeStyle=orthogonalEdgeStyle;rounded=0;orthogonalLoop=1;jettySize=auto;html=1;exitX=0.5;exitY=1;exitDx=0;exitDy=0;" parent="WIyWlLk6GJQsqaUBKTNV-1" edge="1">
          <mxGeometry relative="1" as="geometry">
            <mxPoint x="392" y="469" as="targetPoint" />
            <mxPoint x="392" y="430" as="sourcePoint" />
          </mxGeometry>
        </mxCell>
        <mxCell id="k977jamux4XJl_YSITcb-13" value="Set j = i + 1" style="rounded=0;whiteSpace=wrap;html=1;" parent="WIyWlLk6GJQsqaUBKTNV-1" vertex="1">
          <mxGeometry x="348" y="469" width="88" height="30" as="geometry" />
        </mxCell>
        <mxCell id="k977jamux4XJl_YSITcb-17" style="edgeStyle=orthogonalEdgeStyle;rounded=0;orthogonalLoop=1;jettySize=auto;html=1;exitX=0.5;exitY=1;exitDx=0;exitDy=0;" parent="WIyWlLk6GJQsqaUBKTNV-1" edge="1">
          <mxGeometry relative="1" as="geometry">
            <mxPoint x="392" y="539" as="targetPoint" />
            <mxPoint x="392" y="500" as="sourcePoint" />
          </mxGeometry>
        </mxCell>
        <mxCell id="k977jamux4XJl_YSITcb-18" value="Is&lt;br&gt;j &amp;lt; n" style="html=1;whiteSpace=wrap;aspect=fixed;shape=isoRectangle;" parent="WIyWlLk6GJQsqaUBKTNV-1" vertex="1">
          <mxGeometry x="349" y="538" width="85" height="51" as="geometry" />
        </mxCell>
        <mxCell id="k977jamux4XJl_YSITcb-19" style="edgeStyle=orthogonalEdgeStyle;rounded=0;orthogonalLoop=1;jettySize=auto;html=1;exitX=0.5;exitY=1;exitDx=0;exitDy=0;" parent="WIyWlLk6GJQsqaUBKTNV-1" edge="1">
          <mxGeometry relative="1" as="geometry">
            <mxPoint x="392" y="628" as="targetPoint" />
            <mxPoint x="392" y="589" as="sourcePoint" />
          </mxGeometry>
        </mxCell>
        <mxCell id="k977jamux4XJl_YSITcb-20" value="Is&lt;br&gt;arr[j] &amp;lt; arr[min_idx]" style="html=1;whiteSpace=wrap;aspect=fixed;shape=isoRectangle;" parent="WIyWlLk6GJQsqaUBKTNV-1" vertex="1">
          <mxGeometry x="315" y="627" width="155" height="93" as="geometry" />
        </mxCell>
        <mxCell id="k977jamux4XJl_YSITcb-21" value="min_idx = j" style="rounded=0;whiteSpace=wrap;html=1;" parent="WIyWlLk6GJQsqaUBKTNV-1" vertex="1">
          <mxGeometry x="349" y="759" width="91" height="31" as="geometry" />
        </mxCell>
        <mxCell id="k977jamux4XJl_YSITcb-22" style="edgeStyle=orthogonalEdgeStyle;rounded=0;orthogonalLoop=1;jettySize=auto;html=1;exitX=0.5;exitY=1;exitDx=0;exitDy=0;" parent="WIyWlLk6GJQsqaUBKTNV-1" edge="1">
          <mxGeometry relative="1" as="geometry">
            <mxPoint x="392" y="758" as="targetPoint" />
            <mxPoint x="392" y="719" as="sourcePoint" />
          </mxGeometry>
        </mxCell>
        <mxCell id="k977jamux4XJl_YSITcb-23" style="edgeStyle=orthogonalEdgeStyle;rounded=0;orthogonalLoop=1;jettySize=auto;html=1;exitX=0.5;exitY=1;exitDx=0;exitDy=0;" parent="WIyWlLk6GJQsqaUBKTNV-1" edge="1">
          <mxGeometry relative="1" as="geometry">
            <mxPoint x="392" y="830" as="targetPoint" />
            <mxPoint x="392" y="791" as="sourcePoint" />
          </mxGeometry>
        </mxCell>
        <mxCell id="k977jamux4XJl_YSITcb-24" value="j++" style="rounded=0;whiteSpace=wrap;html=1;" parent="WIyWlLk6GJQsqaUBKTNV-1" vertex="1">
          <mxGeometry x="348" y="830" width="88" height="30" as="geometry" />
        </mxCell>
        <mxCell id="k977jamux4XJl_YSITcb-25" value="Set&lt;br&gt;temp = arr[min_idx]" style="rounded=0;whiteSpace=wrap;html=1;" parent="WIyWlLk6GJQsqaUBKTNV-1" vertex="1">
          <mxGeometry x="337" y="902" width="119" height="38" as="geometry" />
        </mxCell>
        <mxCell id="k977jamux4XJl_YSITcb-26" style="edgeStyle=orthogonalEdgeStyle;rounded=0;orthogonalLoop=1;jettySize=auto;html=1;exitX=0.5;exitY=1;exitDx=0;exitDy=0;" parent="WIyWlLk6GJQsqaUBKTNV-1" edge="1">
          <mxGeometry relative="1" as="geometry">
            <mxPoint x="392" y="979" as="targetPoint" />
            <mxPoint x="392" y="940" as="sourcePoint" />
          </mxGeometry>
        </mxCell>
        <mxCell id="k977jamux4XJl_YSITcb-27" value="Set&lt;br&gt;arr[min_idx] = arr[i]" style="rounded=0;whiteSpace=wrap;html=1;" parent="WIyWlLk6GJQsqaUBKTNV-1" vertex="1">
          <mxGeometry x="337" y="979" width="119" height="38" as="geometry" />
        </mxCell>
        <mxCell id="k977jamux4XJl_YSITcb-28" style="edgeStyle=orthogonalEdgeStyle;rounded=0;orthogonalLoop=1;jettySize=auto;html=1;exitX=0.5;exitY=1;exitDx=0;exitDy=0;" parent="WIyWlLk6GJQsqaUBKTNV-1" edge="1">
          <mxGeometry relative="1" as="geometry">
            <mxPoint x="392" y="1056" as="targetPoint" />
            <mxPoint x="392" y="1017" as="sourcePoint" />
          </mxGeometry>
        </mxCell>
        <mxCell id="k977jamux4XJl_YSITcb-29" value="Set&lt;br&gt;arr[i] = temp" style="rounded=0;whiteSpace=wrap;html=1;" parent="WIyWlLk6GJQsqaUBKTNV-1" vertex="1">
          <mxGeometry x="337" y="1056" width="119" height="38" as="geometry" />
        </mxCell>
        <mxCell id="k977jamux4XJl_YSITcb-30" style="edgeStyle=orthogonalEdgeStyle;rounded=0;orthogonalLoop=1;jettySize=auto;html=1;exitX=0.5;exitY=1;exitDx=0;exitDy=0;" parent="WIyWlLk6GJQsqaUBKTNV-1" edge="1">
          <mxGeometry relative="1" as="geometry">
            <mxPoint x="392" y="1133" as="targetPoint" />
            <mxPoint x="392" y="1094" as="sourcePoint" />
          </mxGeometry>
        </mxCell>
        <mxCell id="k977jamux4XJl_YSITcb-31" value="j++" style="rounded=0;whiteSpace=wrap;html=1;" parent="WIyWlLk6GJQsqaUBKTNV-1" vertex="1">
          <mxGeometry x="349.5" y="1134" width="88" height="30" as="geometry" />
        </mxCell>
        <mxCell id="k977jamux4XJl_YSITcb-34" value="" style="line;strokeWidth=1;html=1;" parent="WIyWlLk6GJQsqaUBKTNV-1" vertex="1">
          <mxGeometry x="280" y="668" width="35" height="12" as="geometry" />
        </mxCell>
        <mxCell id="k977jamux4XJl_YSITcb-36" value="" style="line;strokeWidth=1;direction=south;html=1;" parent="WIyWlLk6GJQsqaUBKTNV-1" vertex="1">
          <mxGeometry x="275" y="674" width="10" height="171" as="geometry" />
        </mxCell>
        <mxCell id="k977jamux4XJl_YSITcb-38" value="" style="edgeStyle=none;orthogonalLoop=1;jettySize=auto;html=1;rounded=0;" parent="WIyWlLk6GJQsqaUBKTNV-1" edge="1">
          <mxGeometry width="100" relative="1" as="geometry">
            <mxPoint x="280" y="845" as="sourcePoint" />
            <mxPoint x="347.5" y="845" as="targetPoint" />
            <Array as="points" />
          </mxGeometry>
        </mxCell>
        <mxCell id="k977jamux4XJl_YSITcb-39" value="" style="edgeStyle=none;orthogonalLoop=1;jettySize=auto;html=1;rounded=0;" parent="WIyWlLk6GJQsqaUBKTNV-1" edge="1">
          <mxGeometry width="100" relative="1" as="geometry">
            <mxPoint x="515" y="563" as="sourcePoint" />
            <mxPoint x="434" y="563" as="targetPoint" />
            <Array as="points" />
          </mxGeometry>
        </mxCell>
        <mxCell id="k977jamux4XJl_YSITcb-40" value="" style="line;strokeWidth=1;direction=south;html=1;" parent="WIyWlLk6GJQsqaUBKTNV-1" vertex="1">
          <mxGeometry x="510" y="563" width="10" height="282" as="geometry" />
        </mxCell>
        <mxCell id="k977jamux4XJl_YSITcb-41" value="" style="line;strokeWidth=1;html=1;" parent="WIyWlLk6GJQsqaUBKTNV-1" vertex="1">
          <mxGeometry x="436" y="839" width="79" height="12" as="geometry" />
        </mxCell>
        <mxCell id="k977jamux4XJl_YSITcb-42" value="" style="line;strokeWidth=1;direction=south;html=1;" parent="WIyWlLk6GJQsqaUBKTNV-1" vertex="1">
          <mxGeometry x="251" y="563" width="10" height="357" as="geometry" />
        </mxCell>
        <mxCell id="k977jamux4XJl_YSITcb-43" value="" style="line;strokeWidth=1;html=1;" parent="WIyWlLk6GJQsqaUBKTNV-1" vertex="1">
          <mxGeometry x="256" y="557.5" width="94" height="12" as="geometry" />
        </mxCell>
        <mxCell id="k977jamux4XJl_YSITcb-44" value="" style="edgeStyle=none;orthogonalLoop=1;jettySize=auto;html=1;rounded=0;" parent="WIyWlLk6GJQsqaUBKTNV-1" edge="1">
          <mxGeometry width="100" relative="1" as="geometry">
            <mxPoint x="255.5" y="920" as="sourcePoint" />
            <mxPoint x="337" y="920" as="targetPoint" />
            <Array as="points" />
          </mxGeometry>
        </mxCell>
        <mxCell id="k977jamux4XJl_YSITcb-45" value="END" style="ellipse;whiteSpace=wrap;html=1;" parent="WIyWlLk6GJQsqaUBKTNV-1" vertex="1">
          <mxGeometry x="344.5" y="1249" width="100" height="40" as="geometry" />
        </mxCell>
        <mxCell id="k977jamux4XJl_YSITcb-46" value="" style="line;strokeWidth=1;direction=south;html=1;" parent="WIyWlLk6GJQsqaUBKTNV-1" vertex="1">
          <mxGeometry x="212" y="325" width="10" height="882" as="geometry" />
        </mxCell>
        <mxCell id="k977jamux4XJl_YSITcb-47" value="" style="line;strokeWidth=1;html=1;" parent="WIyWlLk6GJQsqaUBKTNV-1" vertex="1">
          <mxGeometry x="216.5" y="1201" width="176" height="12" as="geometry" />
        </mxCell>
        <mxCell id="k977jamux4XJl_YSITcb-49" style="edgeStyle=orthogonalEdgeStyle;rounded=0;orthogonalLoop=1;jettySize=auto;html=1;exitX=0.5;exitY=1;exitDx=0;exitDy=0;" parent="WIyWlLk6GJQsqaUBKTNV-1" edge="1">
          <mxGeometry relative="1" as="geometry">
            <mxPoint x="392" y="1249" as="targetPoint" />
            <mxPoint x="392" y="1207" as="sourcePoint" />
          </mxGeometry>
        </mxCell>
        <mxCell id="k977jamux4XJl_YSITcb-50" value="" style="line;strokeWidth=1;html=1;" parent="WIyWlLk6GJQsqaUBKTNV-1" vertex="1">
          <mxGeometry x="217" y="319" width="131" height="12" as="geometry" />
        </mxCell>
        <mxCell id="k977jamux4XJl_YSITcb-51" value="" style="line;strokeWidth=1;direction=south;html=1;" parent="WIyWlLk6GJQsqaUBKTNV-1" vertex="1">
          <mxGeometry x="550" y="324" width="10" height="825" as="geometry" />
        </mxCell>
        <mxCell id="k977jamux4XJl_YSITcb-52" value="" style="edgeStyle=none;orthogonalLoop=1;jettySize=auto;html=1;rounded=0;" parent="WIyWlLk6GJQsqaUBKTNV-1" edge="1">
          <mxGeometry width="100" relative="1" as="geometry">
            <mxPoint x="555" y="324" as="sourcePoint" />
            <mxPoint x="434" y="324" as="targetPoint" />
            <Array as="points" />
          </mxGeometry>
        </mxCell>
        <mxCell id="k977jamux4XJl_YSITcb-53" value="" style="line;strokeWidth=1;html=1;" parent="WIyWlLk6GJQsqaUBKTNV-1" vertex="1">
          <mxGeometry x="437.5" y="1143" width="117" height="12" as="geometry" />
        </mxCell>
        <mxCell id="k977jamux4XJl_YSITcb-54" value="Yes" style="text;html=1;align=center;verticalAlign=middle;resizable=0;points=[];autosize=1;strokeColor=none;fillColor=none;" parent="WIyWlLk6GJQsqaUBKTNV-1" vertex="1">
          <mxGeometry x="384" y="353" width="40" height="30" as="geometry" />
        </mxCell>
        <mxCell id="k977jamux4XJl_YSITcb-55" value="No" style="text;html=1;align=center;verticalAlign=middle;resizable=0;points=[];autosize=1;strokeColor=none;fillColor=none;" parent="WIyWlLk6GJQsqaUBKTNV-1" vertex="1">
          <mxGeometry x="290" y="303" width="40" height="30" as="geometry" />
        </mxCell>
        <mxCell id="k977jamux4XJl_YSITcb-57" value="Yes" style="text;html=1;align=center;verticalAlign=middle;resizable=0;points=[];autosize=1;strokeColor=none;fillColor=none;" parent="WIyWlLk6GJQsqaUBKTNV-1" vertex="1">
          <mxGeometry x="384" y="589" width="40" height="30" as="geometry" />
        </mxCell>
        <mxCell id="k977jamux4XJl_YSITcb-59" value="No" style="text;html=1;align=center;verticalAlign=middle;resizable=0;points=[];autosize=1;strokeColor=none;fillColor=none;" parent="WIyWlLk6GJQsqaUBKTNV-1" vertex="1">
          <mxGeometry x="300" y="542" width="40" height="30" as="geometry" />
        </mxCell>
        <mxCell id="k977jamux4XJl_YSITcb-60" value="Yes" style="text;html=1;align=center;verticalAlign=middle;resizable=0;points=[];autosize=1;strokeColor=none;fillColor=none;" parent="WIyWlLk6GJQsqaUBKTNV-1" vertex="1">
          <mxGeometry x="385" y="720" width="40" height="30" as="geometry" />
        </mxCell>
        <mxCell id="k977jamux4XJl_YSITcb-61" value="No" style="text;html=1;align=center;verticalAlign=middle;resizable=0;points=[];autosize=1;strokeColor=none;fillColor=none;" parent="WIyWlLk6GJQsqaUBKTNV-1" vertex="1">
          <mxGeometry x="284" y="652" width="40" height="30" as="geometry" />
        </mxCell>
        <mxCell id="k977jamux4XJl_YSITcb-62" value="Loop" style="text;html=1;align=center;verticalAlign=middle;resizable=0;points=[];autosize=1;strokeColor=none;fillColor=none;" parent="WIyWlLk6GJQsqaUBKTNV-1" vertex="1">
          <mxGeometry x="505" y="688" width="50" height="30" as="geometry" />
        </mxCell>
        <mxCell id="k977jamux4XJl_YSITcb-63" value="Loop" style="text;html=1;align=center;verticalAlign=middle;resizable=0;points=[];autosize=1;strokeColor=none;fillColor=none;" parent="WIyWlLk6GJQsqaUBKTNV-1" vertex="1">
          <mxGeometry x="545" y="688" width="50" height="30" as="geometry" />
        </mxCell>
        <mxCell id="KI02s_OytgTkkjkGD3mK-0" value="1" style="text;html=1;align=center;verticalAlign=middle;resizable=0;points=[];autosize=1;strokeColor=none;fillColor=none;" vertex="1" parent="WIyWlLk6GJQsqaUBKTNV-1">
          <mxGeometry x="435" y="58" width="30" height="30" as="geometry" />
        </mxCell>
        <mxCell id="KI02s_OytgTkkjkGD3mK-1" value="2" style="text;html=1;align=center;verticalAlign=middle;resizable=0;points=[];autosize=1;strokeColor=none;fillColor=none;" vertex="1" parent="WIyWlLk6GJQsqaUBKTNV-1">
          <mxGeometry x="445" y="148" width="30" height="30" as="geometry" />
        </mxCell>
        <mxCell id="KI02s_OytgTkkjkGD3mK-2" value="3" style="text;html=1;align=center;verticalAlign=middle;resizable=0;points=[];autosize=1;strokeColor=none;fillColor=none;" vertex="1" parent="WIyWlLk6GJQsqaUBKTNV-1">
          <mxGeometry x="430" y="231" width="30" height="30" as="geometry" />
        </mxCell>
        <mxCell id="KI02s_OytgTkkjkGD3mK-3" value="e1" style="text;html=1;align=center;verticalAlign=middle;resizable=0;points=[];autosize=1;strokeColor=none;fillColor=none;" vertex="1" parent="WIyWlLk6GJQsqaUBKTNV-1">
          <mxGeometry x="380" y="92" width="40" height="30" as="geometry" />
        </mxCell>
        <mxCell id="KI02s_OytgTkkjkGD3mK-4" value="e2" style="text;html=1;align=center;verticalAlign=middle;resizable=0;points=[];autosize=1;strokeColor=none;fillColor=none;" vertex="1" parent="WIyWlLk6GJQsqaUBKTNV-1">
          <mxGeometry x="380" y="195" width="40" height="30" as="geometry" />
        </mxCell>
        <mxCell id="KI02s_OytgTkkjkGD3mK-5" value="e3" style="text;html=1;align=center;verticalAlign=middle;resizable=0;points=[];autosize=1;strokeColor=none;fillColor=none;" vertex="1" parent="WIyWlLk6GJQsqaUBKTNV-1">
          <mxGeometry x="382" y="268" width="40" height="30" as="geometry" />
        </mxCell>
        <mxCell id="KI02s_OytgTkkjkGD3mK-6" value="4" style="text;html=1;align=center;verticalAlign=middle;resizable=0;points=[];autosize=1;strokeColor=none;fillColor=none;" vertex="1" parent="WIyWlLk6GJQsqaUBKTNV-1">
          <mxGeometry x="405" y="294" width="30" height="30" as="geometry" />
        </mxCell>
        <mxCell id="KI02s_OytgTkkjkGD3mK-7" value="5" style="text;html=1;align=center;verticalAlign=middle;resizable=0;points=[];autosize=1;strokeColor=none;fillColor=none;" vertex="1" parent="WIyWlLk6GJQsqaUBKTNV-1">
          <mxGeometry x="435" y="398" width="30" height="30" as="geometry" />
        </mxCell>
        <mxCell id="KI02s_OytgTkkjkGD3mK-8" value="6" style="text;html=1;align=center;verticalAlign=middle;resizable=0;points=[];autosize=1;strokeColor=none;fillColor=none;" vertex="1" parent="WIyWlLk6GJQsqaUBKTNV-1">
          <mxGeometry x="428" y="468" width="30" height="30" as="geometry" />
        </mxCell>
        <mxCell id="KI02s_OytgTkkjkGD3mK-9" value="7" style="text;html=1;align=center;verticalAlign=middle;resizable=0;points=[];autosize=1;strokeColor=none;fillColor=none;" vertex="1" parent="WIyWlLk6GJQsqaUBKTNV-1">
          <mxGeometry x="405" y="528" width="30" height="30" as="geometry" />
        </mxCell>
        <mxCell id="KI02s_OytgTkkjkGD3mK-10" value="8" style="text;html=1;align=center;verticalAlign=middle;resizable=0;points=[];autosize=1;strokeColor=none;fillColor=none;" vertex="1" parent="WIyWlLk6GJQsqaUBKTNV-1">
          <mxGeometry x="425" y="628" width="30" height="30" as="geometry" />
        </mxCell>
        <mxCell id="KI02s_OytgTkkjkGD3mK-11" value="9" style="text;html=1;align=center;verticalAlign=middle;resizable=0;points=[];autosize=1;strokeColor=none;fillColor=none;" vertex="1" parent="WIyWlLk6GJQsqaUBKTNV-1">
          <mxGeometry x="434" y="760" width="30" height="30" as="geometry" />
        </mxCell>
        <mxCell id="KI02s_OytgTkkjkGD3mK-12" value="10" style="text;html=1;align=center;verticalAlign=middle;resizable=0;points=[];autosize=1;strokeColor=none;fillColor=none;" vertex="1" parent="WIyWlLk6GJQsqaUBKTNV-1">
          <mxGeometry x="426" y="818" width="40" height="30" as="geometry" />
        </mxCell>
        <mxCell id="KI02s_OytgTkkjkGD3mK-13" value="11" style="text;html=1;align=center;verticalAlign=middle;resizable=0;points=[];autosize=1;strokeColor=none;fillColor=none;" vertex="1" parent="WIyWlLk6GJQsqaUBKTNV-1">
          <mxGeometry x="445" y="908" width="40" height="30" as="geometry" />
        </mxCell>
        <mxCell id="KI02s_OytgTkkjkGD3mK-14" value="12" style="text;html=1;align=center;verticalAlign=middle;resizable=0;points=[];autosize=1;strokeColor=none;fillColor=none;" vertex="1" parent="WIyWlLk6GJQsqaUBKTNV-1">
          <mxGeometry x="445" y="988" width="40" height="30" as="geometry" />
        </mxCell>
        <mxCell id="KI02s_OytgTkkjkGD3mK-15" value="13" style="text;html=1;align=center;verticalAlign=middle;resizable=0;points=[];autosize=1;strokeColor=none;fillColor=none;" vertex="1" parent="WIyWlLk6GJQsqaUBKTNV-1">
          <mxGeometry x="444" y="1062" width="40" height="30" as="geometry" />
        </mxCell>
        <mxCell id="KI02s_OytgTkkjkGD3mK-16" value="14" style="text;html=1;align=center;verticalAlign=middle;resizable=0;points=[];autosize=1;strokeColor=none;fillColor=none;" vertex="1" parent="WIyWlLk6GJQsqaUBKTNV-1">
          <mxGeometry x="427" y="1121" width="40" height="30" as="geometry" />
        </mxCell>
        <mxCell id="KI02s_OytgTkkjkGD3mK-17" value="15" style="text;html=1;align=center;verticalAlign=middle;resizable=0;points=[];autosize=1;strokeColor=none;fillColor=none;" vertex="1" parent="WIyWlLk6GJQsqaUBKTNV-1">
          <mxGeometry x="420" y="1234" width="40" height="30" as="geometry" />
        </mxCell>
        <mxCell id="KI02s_OytgTkkjkGD3mK-18" value="e4" style="text;html=1;align=center;verticalAlign=middle;resizable=0;points=[];autosize=1;strokeColor=none;fillColor=none;" vertex="1" parent="WIyWlLk6GJQsqaUBKTNV-1">
          <mxGeometry x="240" y="298" width="40" height="30" as="geometry" />
        </mxCell>
        <mxCell id="KI02s_OytgTkkjkGD3mK-19" value="e5" style="text;html=1;align=center;verticalAlign=middle;resizable=0;points=[];autosize=1;strokeColor=none;fillColor=none;" vertex="1" parent="WIyWlLk6GJQsqaUBKTNV-1">
          <mxGeometry x="480" y="298" width="40" height="30" as="geometry" />
        </mxCell>
        <mxCell id="KI02s_OytgTkkjkGD3mK-20" value="e6" style="text;html=1;align=center;verticalAlign=middle;resizable=0;points=[];autosize=1;strokeColor=none;fillColor=none;" vertex="1" parent="WIyWlLk6GJQsqaUBKTNV-1">
          <mxGeometry x="360" y="350" width="40" height="30" as="geometry" />
        </mxCell>
        <mxCell id="KI02s_OytgTkkjkGD3mK-21" value="e7" style="text;html=1;align=center;verticalAlign=middle;resizable=0;points=[];autosize=1;strokeColor=none;fillColor=none;" vertex="1" parent="WIyWlLk6GJQsqaUBKTNV-1">
          <mxGeometry x="382" y="431" width="40" height="30" as="geometry" />
        </mxCell>
        <mxCell id="KI02s_OytgTkkjkGD3mK-22" value="e8" style="text;html=1;align=center;verticalAlign=middle;resizable=0;points=[];autosize=1;strokeColor=none;fillColor=none;" vertex="1" parent="WIyWlLk6GJQsqaUBKTNV-1">
          <mxGeometry x="382" y="501" width="40" height="30" as="geometry" />
        </mxCell>
        <mxCell id="KI02s_OytgTkkjkGD3mK-23" value="e9" style="text;html=1;align=center;verticalAlign=middle;resizable=0;points=[];autosize=1;strokeColor=none;fillColor=none;" vertex="1" parent="WIyWlLk6GJQsqaUBKTNV-1">
          <mxGeometry x="260" y="538" width="40" height="30" as="geometry" />
        </mxCell>
        <mxCell id="KI02s_OytgTkkjkGD3mK-24" value="e10" style="text;html=1;align=center;verticalAlign=middle;resizable=0;points=[];autosize=1;strokeColor=none;fillColor=none;" vertex="1" parent="WIyWlLk6GJQsqaUBKTNV-1">
          <mxGeometry x="450" y="538" width="40" height="30" as="geometry" />
        </mxCell>
        <mxCell id="KI02s_OytgTkkjkGD3mK-25" value="e11" style="text;html=1;align=center;verticalAlign=middle;resizable=0;points=[];autosize=1;strokeColor=none;fillColor=none;" vertex="1" parent="WIyWlLk6GJQsqaUBKTNV-1">
          <mxGeometry x="358" y="592" width="40" height="30" as="geometry" />
        </mxCell>
        <mxCell id="KI02s_OytgTkkjkGD3mK-27" value="e12" style="text;html=1;align=center;verticalAlign=middle;resizable=0;points=[];autosize=1;strokeColor=none;fillColor=none;" vertex="1" parent="WIyWlLk6GJQsqaUBKTNV-1">
          <mxGeometry x="260" y="651" width="40" height="30" as="geometry" />
        </mxCell>
        <mxCell id="KI02s_OytgTkkjkGD3mK-28" value="e13" style="text;html=1;align=center;verticalAlign=middle;resizable=0;points=[];autosize=1;strokeColor=none;fillColor=none;" vertex="1" parent="WIyWlLk6GJQsqaUBKTNV-1">
          <mxGeometry x="358" y="720" width="40" height="30" as="geometry" />
        </mxCell>
        <mxCell id="KI02s_OytgTkkjkGD3mK-29" value="e14" style="text;html=1;align=center;verticalAlign=middle;resizable=0;points=[];autosize=1;strokeColor=none;fillColor=none;" vertex="1" parent="WIyWlLk6GJQsqaUBKTNV-1">
          <mxGeometry x="385" y="791" width="40" height="30" as="geometry" />
        </mxCell>
        <mxCell id="KI02s_OytgTkkjkGD3mK-30" value="e15" style="text;html=1;align=center;verticalAlign=middle;resizable=0;points=[];autosize=1;strokeColor=none;fillColor=none;" vertex="1" parent="WIyWlLk6GJQsqaUBKTNV-1">
          <mxGeometry x="385" y="941" width="40" height="30" as="geometry" />
        </mxCell>
        <mxCell id="KI02s_OytgTkkjkGD3mK-31" value="e16" style="text;html=1;align=center;verticalAlign=middle;resizable=0;points=[];autosize=1;strokeColor=none;fillColor=none;" vertex="1" parent="WIyWlLk6GJQsqaUBKTNV-1">
          <mxGeometry x="385" y="1019" width="40" height="30" as="geometry" />
        </mxCell>
        <mxCell id="KI02s_OytgTkkjkGD3mK-32" value="e17" style="text;html=1;align=center;verticalAlign=middle;resizable=0;points=[];autosize=1;strokeColor=none;fillColor=none;" vertex="1" parent="WIyWlLk6GJQsqaUBKTNV-1">
          <mxGeometry x="386" y="1098" width="40" height="30" as="geometry" />
        </mxCell>
        <mxCell id="KI02s_OytgTkkjkGD3mK-33" value="R1" style="text;html=1;align=center;verticalAlign=middle;resizable=0;points=[];autosize=1;strokeColor=none;fillColor=none;" vertex="1" parent="WIyWlLk6GJQsqaUBKTNV-1">
          <mxGeometry x="290" y="738" width="40" height="30" as="geometry" />
        </mxCell>
        <mxCell id="KI02s_OytgTkkjkGD3mK-34" value="R2" style="text;html=1;align=center;verticalAlign=middle;resizable=0;points=[];autosize=1;strokeColor=none;fillColor=none;" vertex="1" parent="WIyWlLk6GJQsqaUBKTNV-1">
          <mxGeometry x="450" y="708" width="40" height="30" as="geometry" />
        </mxCell>
        <mxCell id="KI02s_OytgTkkjkGD3mK-35" value="R3" style="text;html=1;align=center;verticalAlign=middle;resizable=0;points=[];autosize=1;strokeColor=none;fillColor=none;" vertex="1" parent="WIyWlLk6GJQsqaUBKTNV-1">
          <mxGeometry x="480" y="878" width="40" height="30" as="geometry" />
        </mxCell>
        <mxCell id="KI02s_OytgTkkjkGD3mK-36" value="R4" style="text;html=1;align=center;verticalAlign=middle;resizable=0;points=[];autosize=1;strokeColor=none;fillColor=none;" vertex="1" parent="WIyWlLk6GJQsqaUBKTNV-1">
          <mxGeometry x="490" y="178" width="40" height="30" as="geometry" />
        </mxCell>
        <mxCell id="KI02s_OytgTkkjkGD3mK-37" value="Predicate&lt;br&gt;Node&lt;br&gt;P1" style="text;html=1;align=center;verticalAlign=middle;resizable=0;points=[];autosize=1;strokeColor=none;fillColor=none;" vertex="1" parent="WIyWlLk6GJQsqaUBKTNV-1">
          <mxGeometry x="315" y="270" width="70" height="60" as="geometry" />
        </mxCell>
        <mxCell id="KI02s_OytgTkkjkGD3mK-38" value="P2" style="text;html=1;align=center;verticalAlign=middle;resizable=0;points=[];autosize=1;strokeColor=none;fillColor=none;" vertex="1" parent="WIyWlLk6GJQsqaUBKTNV-1">
          <mxGeometry x="340" y="528" width="40" height="30" as="geometry" />
        </mxCell>
        <mxCell id="KI02s_OytgTkkjkGD3mK-39" value="P3" style="text;html=1;align=center;verticalAlign=middle;resizable=0;points=[];autosize=1;strokeColor=none;fillColor=none;" vertex="1" parent="WIyWlLk6GJQsqaUBKTNV-1">
          <mxGeometry x="320" y="628" width="40" height="30" as="geometry" />
        </mxCell>
      </root>
    </mxGraphModel>
  </diagram>
</mxfile>
